<svg width="50" height="49" viewBox="0 0 50 49" fill="none" xmlns="http://www.w3.org/2000/svg">
<path d="M49.1667 43.4698H48.0833C48.25 42.956 48.3333 42.4226 48.3333 41.8891C48.3333 40.4467 47.7396 39.0537 46.6667 38.0263V31.6147C46.6667 29.7377 45.2708 28.1175 43.3333 27.7421V25.292C43.3333 23.988 42.2083 22.921 40.8333 22.921H32.0625C33.4271 21.37 34.1667 19.4139 34.1667 17.3886V16.4896C35.9479 16.0549 37.0208 14.3458 36.5625 12.6565C36.25 11.5105 35.2917 10.6313 34.0833 10.3645L33.5625 6.41284L35.8333 5.80032V8.69493H37.5V4.74325C37.5 4.3876 37.25 4.08134 36.8958 3.98255L25.2292 0.821203C25.0833 0.781686 24.9271 0.781686 24.7812 0.821203L13.1146 3.98255C12.6771 4.1011 12.4167 4.54567 12.5521 4.96059C12.6354 5.21745 12.8438 5.42491 13.1146 5.49407L16.4479 6.40296L15.9271 10.3546C14.1354 10.7399 13.0208 12.4293 13.4271 14.1285C13.7083 15.2844 14.6354 16.1834 15.8438 16.4798V17.3788C15.8542 19.3941 16.5938 21.3502 17.9479 22.9111H9.16667C7.79167 22.9111 6.66667 23.9781 6.66667 25.2821V27.7322C4.72917 28.1175 3.33333 29.7377 3.33333 31.6147V38.0263C2.26042 39.0537 1.66667 40.4467 1.66667 41.8891C1.66667 42.4226 1.75 42.956 1.90625 43.4698H0.833333C0.375 43.4698 0 43.8254 0 44.2601V47.4214C0 47.8561 0.375 48.2118 0.833333 48.2118H49.1667C49.625 48.2118 50 47.8561 50 47.4214V44.2601C50 43.8254 49.625 43.4698 49.1667 43.4698ZM34.1667 12.0736C34.9583 12.4984 35.2396 13.4567 34.7812 14.2075C34.6354 14.4545 34.4167 14.6521 34.1667 14.7904V12.0736ZM15.8333 14.7904C15.0417 14.3656 14.7604 13.4073 15.2188 12.6565C15.3646 12.4095 15.5833 12.2119 15.8333 12.0736V14.7904ZM43.3333 29.3721C44.3333 29.708 45 30.607 45 31.6048V36.8803C44.4688 36.6432 43.9062 36.4852 43.3333 36.4061V29.3721ZM43.3333 38.0164C45.2708 38.3918 46.6667 40.012 46.6667 41.8891C46.6667 42.4324 46.5417 42.9659 46.3125 43.4698H44.8438C44.9375 43.2129 44.9896 42.9462 44.9896 42.6794V41.8891C44.9896 41.0197 44.2396 40.3084 43.3229 40.3084V38.0164H43.3333ZM16.3646 4.74325L25 2.40188L33.6354 4.74325L25 7.08462L16.3646 4.74325ZM32.3958 10.2756H17.6042L18.0625 6.84752L24.7708 8.6653C24.9167 8.70481 25.0729 8.70481 25.2188 8.6653L31.9271 6.84752L32.3958 10.2756ZM17.5 17.3886V11.8563H32.5V17.3886C32.5 19.2756 31.7083 21.0835 30.3021 22.4172C30.1146 22.6049 29.9062 22.7728 29.6875 22.921H20.3125C18.5417 21.5675 17.5104 19.5423 17.5 17.3886ZM8.33333 25.292C8.33333 24.8573 8.70833 24.5017 9.16667 24.5017H40.8333C41.2917 24.5017 41.6667 24.8573 41.6667 25.292V40.3084H8.33333V25.292ZM43.3333 41.8891V42.6794C43.3333 43.1141 42.9583 43.4698 42.5 43.4698H7.5C7.04167 43.4698 6.66667 43.1141 6.66667 42.6794V41.8891H43.3333ZM5 31.6147C5 30.607 5.66667 29.7179 6.66667 29.382V36.4259C6.09375 36.5049 5.53125 36.663 5 36.9001V31.6147ZM6.66667 38.0164V40.3084C5.75 40.3084 5 41.0197 5 41.8891V42.6794C5 42.9462 5.05208 43.2129 5.14583 43.4698H3.6875C2.77083 41.4742 3.72917 39.1427 5.83333 38.2634C6.10417 38.1547 6.38542 38.0658 6.66667 38.0164ZM48.3333 46.6311H1.66667V45.0504H48.3333V46.6311Z" fill="#084C94"/>
<path d="M25 35.5664C26.8437 35.5664 28.3333 34.1537 28.3333 32.4051H26.6667C26.6667 33.2744 25.9167 33.9857 25 33.9857C24.0833 33.9857 23.3333 33.2744 23.3333 32.4051C23.3333 31.5357 24.0833 30.8244 25 30.8244V29.2437C23.1563 29.2437 21.6667 30.6564 21.6667 32.4051C21.6667 34.1537 23.1563 35.5664 25 35.5664Z" fill="#084C94"/>
<path d="M21.6667 17.3887C22.125 17.3887 22.5 17.033 22.5 16.5984V15.0176C22.5 14.583 22.125 14.2273 21.6667 14.2273C21.2083 14.2273 20.8333 14.583 20.8333 15.0176V16.5984C20.8333 17.033 21.2083 17.3887 21.6667 17.3887Z" fill="#084C94"/>
<path d="M28.3333 14.2273C27.875 14.2273 27.5 14.583 27.5 15.0176V16.5984C27.5 17.033 27.875 17.3887 28.3333 17.3887C28.7917 17.3887 29.1667 17.033 29.1667 16.5984V15.0176C29.1667 14.583 28.7917 14.2273 28.3333 14.2273Z" fill="#084C94"/>
<path d="M25 20.55C23.3854 20.55 22.5 19.9573 22.5 19.7597H20.8333C20.8333 21.1131 22.625 22.1307 25 22.1307C27.375 22.1307 29.1667 21.1131 29.1667 19.7597H27.5C27.5 19.9573 26.6146 20.55 25 20.55Z" fill="#084C94"/>
</svg>
