<svg width="50" height="50" viewBox="0 0 50 50" fill="none" xmlns="http://www.w3.org/2000/svg">
<g clip-path="url(#clip0)">
<path d="M47.5 10.8333H28.1979L27.8854 9.07289C30.1354 7.47914 30.6667 4.35415 29.0729 2.10415C27.4792 -0.145853 24.3646 -0.677102 22.1042 0.916647C19.8438 2.5104 19.3229 5.63539 20.9167 7.88539C21.2396 8.34373 21.6458 8.74998 22.1042 9.07289L21.7917 10.8333H3.33333C1.48958 10.8333 0 12.3229 0 14.1666V40C0 41.375 1.125 42.5 2.5 42.5H21.6667V45H16.6667C16.2083 45 15.8333 45.375 15.8333 45.8333V49.1666C15.8333 49.625 16.2083 50 16.6667 50H33.3333C33.7917 50 34.1667 49.625 34.1667 49.1666V45.8333C34.1667 45.375 33.7917 45 33.3333 45H28.3333V42.5H47.5C48.875 42.5 50 41.375 50 40V13.3333C50 11.9583 48.875 10.8437 47.5 10.8333ZM21.6667 4.99998C21.6667 3.15623 23.1562 1.66665 25 1.66665C26.8438 1.66665 28.3333 3.15623 28.3333 4.99998C28.3333 6.84373 26.8438 8.33331 25 8.33331C23.1562 8.33331 21.6667 6.84373 21.6667 4.99998ZM26.5104 10.8333H23.4896L23.6667 9.81248C24.5417 10.0521 25.4583 10.0521 26.3333 9.81248L26.5104 10.8333ZM32.5 46.6666V48.3333H17.5V46.6666H32.5ZM23.3333 45V42.5H26.6667V45H23.3333ZM48.3333 40C48.3333 40.4583 47.9583 40.8333 47.5 40.8333H2.5C2.04167 40.8333 1.66667 40.4583 1.66667 40V39.1666H48.3333V40ZM48.3333 37.5H1.66667V14.1666C1.66667 13.25 2.41667 12.5 3.33333 12.5H47.5C47.9583 12.5 48.3333 12.875 48.3333 13.3333V37.5Z" fill="#084C94"/>
<path d="M25 7.5C26.3854 7.5 27.5 6.38542 27.5 5C27.5 3.61458 26.3854 2.5 25 2.5C23.6146 2.5 22.5 3.61458 22.5 5C22.5 6.38542 23.6146 7.5 25 7.5ZM25 4.16667C25.4583 4.16667 25.8333 4.54167 25.8333 5C25.8333 5.45833 25.4583 5.83333 25 5.83333C24.5417 5.83333 24.1667 5.45833 24.1667 5C24.1667 4.54167 24.5417 4.16667 25 4.16667Z" fill="#084C94"/>
<path d="M46.6667 13.3333H3.33333C2.875 13.3333 2.5 13.7083 2.5 14.1666V35.8333C2.5 36.2916 2.875 36.6666 3.33333 36.6666H46.6667C47.125 36.6666 47.5 36.2916 47.5 35.8333V14.1666C47.5 13.7083 47.125 13.3333 46.6667 13.3333ZM22.8438 35H7.5V34.1666C7.5 32.7916 8.625 31.6666 10 31.6666H11.25L13.5 34.6666C13.7812 35.0312 14.3021 35.1146 14.6667 34.8333C14.7292 34.7812 14.7812 34.7291 14.8333 34.6666L17.0833 31.6666H18.8958L20.375 32.7187C20.5625 32.8646 20.8021 32.9062 21.0208 32.8646C21.25 32.8229 21.4479 32.6771 21.5625 32.4791L22.8125 30.4583L24.625 31.8125L22.8438 35ZM10.8333 21.6666H17.5V24.1666C17.5 26.0104 16.0104 27.5 14.1667 27.5C12.3229 27.5 10.8333 26.0104 10.8333 24.1666V21.6666ZM8.4375 20C8.88542 18.2291 10.6771 17.1562 12.4479 17.6041C12.9167 17.7187 13.3542 17.9375 13.7292 18.25C13.9271 18.4062 14.1875 18.4687 14.4375 18.4062C14.625 18.3646 14.8125 18.3437 15 18.3437C16.0625 18.3437 17 19.0104 17.3542 20.0104H8.4375V20ZM12.6875 30L12.8854 28.9896C13.7292 29.2187 14.6146 29.2187 15.4479 28.9896L15.6458 30H12.6875ZM15 31.6666L14.1667 32.7708L13.3333 31.6666H15ZM23.6875 29.0312L23.9583 28.5937C24.25 28.125 24.8542 27.9479 25.3438 28.1979C25.875 28.4687 26.0833 29.1146 25.8125 29.6458C25.8125 29.6562 25.8021 29.6666 25.8021 29.6771L25.4375 30.3333L23.6875 29.0312ZM45.8333 35H24.75L27.2708 30.4791C27.6354 29.8333 27.7187 29.0521 27.4896 28.3437C27.375 27.9479 27.1562 27.5937 26.875 27.2916L29.9167 21.2083L28.4375 20.4583L25.4167 26.4791C24.2917 26.2396 23.1458 26.7396 22.5417 27.7083L20.6146 30.8437L19.6458 30.1562C19.5104 30.0521 19.3333 30 19.1667 30H17.3542L17.0104 28.2708C18.3646 27.3333 19.1667 25.8021 19.1667 24.1666V20.8333C19.1667 18.5312 17.3021 16.6666 15 16.6666C14.8229 16.6666 14.6354 16.6875 14.4583 16.7083C13.6354 16.1354 12.6667 15.8333 11.6667 15.8333C8.90625 15.8333 6.66667 18.0729 6.66667 20.8333C6.66667 21.2916 7.04167 21.6666 7.5 21.6666H9.16667V24.1666C9.16667 25.8021 9.97917 27.3437 11.3229 28.2708L10.9792 30H10C7.69792 30 5.83333 31.8646 5.83333 34.1666V35H4.16667V15H45.8333V35Z" fill="#084C94"/>
<path d="M30.8333 16.6667H37.5V18.3334H30.8333V16.6667Z" fill="#084C94"/>
<path d="M39.1667 16.6667H44.1667V18.3334H39.1667V16.6667Z" fill="#084C94"/>
<path d="M30.8333 20H34.1666V21.6667H30.8333V20Z" fill="#084C94"/>
<path d="M35.8333 20H44.1666V21.6667H35.8333V20Z" fill="#084C94"/>
<path d="M30.8333 23.3333H35.8333V25H30.8333V23.3333Z" fill="#084C94"/>
<path d="M37.5 23.3333H44.1667V25H37.5V23.3333Z" fill="#084C94"/>
<path d="M30.8333 26.6667H44.1666V28.3334H30.8333V26.6667Z" fill="#084C94"/>
<path d="M30.8333 30H44.1666V31.6667H30.8333V30Z" fill="#084C94"/>
</g>
<defs>
<clipPath id="clip0">
<rect width="50" height="50" fill="white"/>
</clipPath>
</defs>
</svg>
