<svg width="50" height="43" viewBox="0 0 50 43" fill="none" xmlns="http://www.w3.org/2000/svg">
<g clip-path="url(#clip0)">
<path d="M47.9004 36.4257H46.4355C46.6211 36.0546 46.7285 35.6444 46.7285 35.205V9.81438C46.7285 8.33001 45.5273 7.12884 44.043 7.12884H40.0879V6.2304C40.0879 5.52728 39.5117 4.9511 38.8086 4.9511H37.5977V1.27923C37.5977 0.869076 37.3926 0.478451 37.0605 0.234311C36.7285 -0.0098296 36.2891 -0.0684233 35.8984 0.0682953L33.5938 0.869076C33.2129 1.00579 33.0078 1.41595 33.1445 1.79681C33.2812 2.17767 33.6914 2.38275 34.0723 2.24603L36.1328 1.53314V19.1503L25.7324 22.7538V5.13665L31.1133 3.27142C31.4941 3.1347 31.6992 2.72454 31.5625 2.34368C31.4258 1.96283 31.0156 1.75775 30.6348 1.89447L25 3.84759L14.1016 0.0682953C13.7109 -0.0684233 13.2812 -6.39881e-05 12.9395 0.234311C12.6074 0.478451 12.4023 0.85931 12.4023 1.27923V4.9511H11.1914C10.4883 4.9511 9.91211 5.52728 9.91211 6.2304V7.12884H5.95703C4.47266 7.12884 3.27148 8.33001 3.27148 9.81438V12.4218C3.27148 12.8222 3.60352 13.1542 4.00391 13.1542C4.4043 13.1542 4.73633 12.8222 4.73633 12.4218V9.81438C4.73633 9.14055 5.2832 8.59368 5.95703 8.59368H9.91211V10.0585H6.93359C6.73828 10.0585 6.55273 10.1366 6.41602 10.2734C6.2793 10.4101 6.20117 10.5956 6.20117 10.7909V34.2284C6.20117 34.6288 6.5332 34.9608 6.93359 34.9608H43.0664C43.2617 34.9608 43.4473 34.8827 43.584 34.746C43.7207 34.6093 43.7988 34.4237 43.7988 34.2284V10.7909C43.7988 10.3906 43.4668 10.0585 43.0664 10.0585H40.0879V8.59368H44.043C44.7168 8.59368 45.2637 9.14055 45.2637 9.81438V35.205C45.2637 35.8788 44.7168 36.4257 44.043 36.4257H5.95703C5.2832 36.4257 4.73633 35.8788 4.73633 35.205V15.5566C4.73633 15.1562 4.4043 14.8241 4.00391 14.8241C3.60352 14.8241 3.27148 15.1562 3.27148 15.5566V35.205C3.27148 35.6444 3.37891 36.0546 3.56445 36.4257H2.09961C0.9375 36.4257 0 37.3632 0 38.5253V40.6737C0 41.8358 0.9375 42.7733 2.09961 42.7733H31.2207C31.6211 42.7733 31.9531 42.4413 31.9531 42.0409C31.9531 41.6405 31.6211 41.3085 31.2207 41.3085H2.09961C1.74805 41.3085 1.46484 41.0253 1.46484 40.6737V38.5253C1.46484 38.1737 1.74805 37.8905 2.09961 37.8905H20.0684V38.4081C20.0684 39.414 20.8887 40.2343 21.8945 40.2343H28.0957C29.1016 40.2343 29.9219 39.414 29.9219 38.4081V37.8905H47.8906C48.2422 37.8905 48.5254 38.1737 48.5254 38.5253V40.6737C48.5254 41.0253 48.2422 41.3085 47.8906 41.3085H34.4141C34.0137 41.3085 33.6816 41.6405 33.6816 42.0409C33.6816 42.4413 34.0137 42.7733 34.4141 42.7733H47.9004C49.0625 42.7733 50 41.8358 50 40.6737V38.5253C50 37.3632 49.0625 36.4257 47.9004 36.4257ZM36.7383 20.498C37.2559 20.3222 37.5977 19.8339 37.5977 19.287V6.41595H38.623V23.0468H29.3555L36.7383 20.498ZM13.8672 1.5429L24.2676 5.13665V22.7538L13.8672 19.1503V1.5429ZM11.377 6.41595H12.4023V19.287C12.4023 19.8339 12.7441 20.3222 13.2617 20.498L20.6348 23.0468H11.3672L11.377 6.41595ZM42.334 11.5234V33.496H7.66602V11.5234H9.91211V23.2323C9.91211 23.9355 10.4883 24.5116 11.1914 24.5116H38.8086C39.5117 24.5116 40.0879 23.9355 40.0879 23.2323V11.5234H42.334ZM28.4668 38.4081C28.4668 38.6132 28.3008 38.7694 28.1055 38.7694H21.9043C21.6992 38.7694 21.543 38.6034 21.543 38.4081V37.8905H28.4766V38.4081H28.4668Z" fill="#084C94"/>
<path d="M34.6191 26.6015H15.3809C14.9805 26.6015 14.6484 26.9335 14.6484 27.3339C14.6484 27.7343 14.9805 28.0663 15.3809 28.0663H34.6191C35.0195 28.0663 35.3516 27.7343 35.3516 27.3339C35.3516 26.9335 35.0293 26.6015 34.6191 26.6015Z" fill="#084C94"/>
<path d="M27.8613 29.7069H15.3809C14.9805 29.7069 14.6484 30.0389 14.6484 30.4393C14.6484 30.8397 14.9805 31.1718 15.3809 31.1718H27.8613C28.2617 31.1718 28.5937 30.8397 28.5937 30.4393C28.5937 30.0389 28.2617 29.7069 27.8613 29.7069Z" fill="#084C94"/>
</g>
<defs>
<clipPath id="clip0">
<rect width="50" height="42.7734" fill="white"/>
</clipPath>
</defs>
</svg>
