<svg width="50" height="44" viewBox="0 0 50 44" fill="none" xmlns="http://www.w3.org/2000/svg">
<g clip-path="url(#clip0)">
<path d="M48.291 0H1.70898C0.771484 0 0 0.771485 0 1.70899V7.72462C0 8.67188 1.46484 8.67188 1.46484 7.72462V1.70899C1.46484 1.57227 1.57227 1.46485 1.70898 1.46485H48.291C48.4277 1.46485 48.5352 1.57227 48.5352 1.70899V37.4219C48.5352 37.5586 48.4277 37.666 48.291 37.666H38.9062V36.1426H46.2695C46.6699 36.1426 47.002 35.8106 47.002 35.4102V27.7442C47.002 26.7969 45.5371 26.7969 45.5371 27.7442V34.6778H38.9062V31.4258C38.9258 31.4258 38.9551 31.4258 38.9746 31.4356C39.5801 31.4844 40.3418 31.5528 40.8594 31.0352C41.3867 30.5078 41.3184 29.7559 41.2598 29.1407C41.2012 28.4864 41.2598 28.3106 41.7676 27.8907C43.0566 26.8164 43.0859 25.6641 41.7676 24.5703C41.2695 24.1504 41.2012 23.9746 41.2598 23.3203C41.4062 21.6797 40.6348 20.8789 38.9648 21.0254C38.3105 21.084 38.1348 21.0254 37.7246 20.5176C36.6504 19.2188 35.498 19.1992 34.4043 20.5176C33.9844 21.0156 33.8086 21.084 33.1641 21.0254C31.5234 20.8789 30.7227 21.6504 30.8691 23.3203C30.9277 23.9746 30.8691 24.1504 30.3613 24.5703C29.0723 25.6446 29.043 26.7969 30.3613 27.8907C30.8594 28.3106 30.9277 28.4864 30.8691 29.1407C30.7129 30.8985 31.5527 31.5723 33.2324 31.4258V34.6778H4.46289V4.45313H45.5371V23.8379C45.5371 24.7852 47.002 24.7852 47.002 23.8379V3.72071C47.002 3.32032 46.6699 2.98828 46.2695 2.98828H3.73047C3.33008 2.98828 2.99805 3.32032 2.99805 3.72071V35.4102C2.99805 35.8106 3.33008 36.1426 3.73047 36.1426H33.2422V37.666H1.70898C1.57227 37.666 1.46484 37.5586 1.46484 37.4219V11.4356C1.46484 10.4883 0 10.4883 0 11.4356V37.4219C0 38.3594 0.771484 39.1309 1.70898 39.1309H33.2422V42.4512C33.3496 43.0567 33.6914 43.2715 34.2871 43.1153L36.0742 42.2852L37.8613 43.1153C38.3008 43.3204 38.9062 42.9981 38.9062 42.4512V39.1309H48.291C49.2285 39.1309 50 38.3594 50 37.4219V1.70899C50 0.761719 49.2285 0 48.291 0ZM33.0469 29.9805C32.3145 30.0489 32.2754 30.0098 32.3438 29.2774C32.4414 28.1543 32.1875 27.5 31.3184 26.7774C30.7227 26.2793 30.7227 26.2012 31.3184 25.7129C32.1875 24.9903 32.4414 24.336 32.3438 23.2129C32.2754 22.4805 32.3145 22.4414 33.0469 22.5098C34.1699 22.6074 34.8242 22.3438 35.5469 21.4746C36.0352 20.8789 36.1133 20.8789 36.6113 21.4746C37.334 22.3438 37.9883 22.6074 39.1113 22.5098C39.8438 22.4414 39.8828 22.4805 39.8145 23.2129C39.7168 24.336 39.9707 24.9903 40.8398 25.7129C41.4355 26.211 41.4355 26.2891 40.8398 26.7774C39.9707 27.5 39.7168 28.1543 39.8145 29.2774C39.8828 30.0098 39.8438 30.0489 39.1113 29.9805C38.6523 29.9414 38.125 29.8926 37.666 30.0879C37.2168 30.2735 36.9043 30.6543 36.6113 31.0157C36.4648 31.1914 36.2109 31.5039 36.084 31.5528C35.957 31.4942 35.6934 31.1817 35.5566 31.0157C35.2539 30.6543 34.9414 30.2735 34.502 30.0879C34.0137 29.9414 33.5254 29.9024 33.0469 29.9805ZM36.3867 40.8106C36.1914 40.7227 35.9668 40.7227 35.7715 40.8106L34.7168 41.2989V32.2852C35.0684 32.666 35.498 33.0176 36.084 33.0176C36.6699 33.0176 37.0996 32.666 37.4512 32.2852V41.2989L36.3867 40.8106Z" fill="#084C94"/>
<path d="M9.50195 10.5859H34.7461C35.6934 10.5859 35.6934 9.12103 34.7461 9.12103H9.50195C8.55469 9.12103 8.55469 10.5859 9.50195 10.5859Z" fill="#084C94"/>
<path d="M41.2305 14.3066C41.2305 13.9062 40.8984 13.5742 40.4981 13.5742H9.50195C8.55469 13.5742 8.55469 15.0391 9.50195 15.0391H40.5078C40.9082 15.0391 41.2305 14.707 41.2305 14.3066Z" fill="#084C94"/>
<path d="M27.8418 18.7598C27.8418 18.3594 27.5098 18.0274 27.1094 18.0274H9.50195C8.55469 18.0274 8.55469 19.4922 9.50195 19.4922H27.1192C27.5196 19.4922 27.8418 19.17 27.8418 18.7598Z" fill="#084C94"/>
<path d="M18.2324 28.9747C17.832 28.9747 17.4317 28.9747 17.0313 28.9747C16.2598 28.9747 15.8399 28.7696 15.6836 27.9591C15.5371 27.2169 14.4629 27.3146 14.2676 27.9591C14.1797 28.2423 13.7402 29.0724 13.3594 29.004C13.1543 28.965 13.0664 28.6525 12.9883 28.4962C12.8418 28.1837 12.7344 27.8419 12.6465 27.5099C12.2656 26.0939 12.1875 24.6095 11.9434 23.1642C11.8067 22.3243 10.5274 22.5587 10.5078 23.3595C10.4395 25.8985 10.0293 28.3986 9.1211 30.7716C8.78907 31.6505 10.2051 32.0314 10.5371 31.1622C10.8887 30.2443 11.1621 29.3068 11.377 28.3497C11.4942 28.7013 11.6309 29.0333 11.7969 29.3654C12.2266 30.215 13.0957 30.713 14.0332 30.3322C14.3652 30.1954 14.668 29.9611 14.9317 29.6779C15.625 30.4786 16.6602 30.4396 17.6172 30.4396C19.0625 30.4396 20.5176 30.4298 21.9629 30.4298C22.9102 30.4298 22.9102 28.965 21.9629 28.965C20.7129 28.965 19.4727 28.965 18.2324 28.9747Z" fill="#084C94"/>
<path d="M36.0742 29.0918C37.6563 29.0918 38.9356 27.8125 38.9356 26.2305C38.9356 24.6484 37.6563 23.3691 36.0742 23.3691C34.4922 23.3691 33.2129 24.6484 33.2129 26.2305C33.2129 27.8125 34.4922 29.0918 36.0742 29.0918ZM36.0742 24.8437C36.8457 24.8437 37.4707 25.4687 37.4707 26.2402C37.4707 27.0117 36.8457 27.6367 36.0742 27.6367C35.3027 27.6367 34.6777 27.0117 34.6777 26.2402C34.6777 25.4687 35.3027 24.8437 36.0742 24.8437Z" fill="#084C94"/>
</g>
<defs>
<clipPath id="clip0">
<rect width="50" height="43.1738" fill="white"/>
</clipPath>
</defs>
</svg>
