<svg width="220" height="56" viewBox="0 0 220 56" fill="none" xmlns="http://www.w3.org/2000/svg">
<path d="M66.5624 46.5014C66.6044 46.5853 66.6043 46.6692 66.6043 46.7532C66.6043 46.8791 66.6044 46.963 66.5624 47.005H63.7924V49.2293H66.1427C66.1847 49.3133 66.1847 49.3972 66.1847 49.4811C66.1847 49.5651 66.1847 49.649 66.1427 49.7329H63.7924V51.9993H66.6463C66.6883 52.0832 66.6883 52.1671 66.6883 52.2511C66.6883 52.335 66.6883 52.4189 66.6463 52.5029H63.1629V46.4594H66.5624V46.5014Z" fill="#2B3545"/>
<path d="M69.1644 48.1801C69.2064 48.1801 69.2064 48.1801 69.2484 48.1801C69.2903 48.1801 69.3323 48.1801 69.3743 48.1801C69.4163 48.1801 69.4582 48.1801 69.5422 48.1801C69.5841 48.1801 69.6681 48.1801 69.71 48.1801C69.752 48.1801 69.794 48.1801 69.8359 48.1801C69.8779 48.1801 69.8779 48.1801 69.9199 48.1801L71.095 49.8589L72.2701 48.1801C72.3121 48.1801 72.3121 48.1801 72.3541 48.1801C72.396 48.1801 72.396 48.1801 72.438 48.1801C72.48 48.1801 72.5219 48.1801 72.5639 48.1801C72.6059 48.1801 72.6478 48.1801 72.6898 48.1801C72.7318 48.1801 72.7737 48.1801 72.8157 48.1801C72.8577 48.1801 72.8577 48.1801 72.8997 48.1801L71.4307 50.2785L72.9836 52.5029C72.9416 52.5029 72.9416 52.5029 72.8997 52.5449C72.8577 52.5449 72.8157 52.5449 72.7737 52.5449C72.7318 52.5449 72.6898 52.5449 72.6059 52.5449C72.5639 52.5449 72.48 52.5449 72.438 52.5449C72.396 52.5449 72.3541 52.5449 72.3121 52.5449C72.2701 52.5449 72.2701 52.5449 72.2282 52.5029L70.9691 50.7402L69.71 52.5029C69.6681 52.5029 69.6681 52.5029 69.6261 52.5449C69.5841 52.5449 69.5841 52.5449 69.5422 52.5449C69.5002 52.5449 69.4582 52.5449 69.4162 52.5449C69.3743 52.5449 69.3323 52.5449 69.2903 52.5449C69.2484 52.5449 69.2064 52.5449 69.2064 52.5449C69.1644 52.5449 69.1644 52.5449 69.1225 52.5029L70.6753 50.2785L69.1644 48.1801Z" fill="#2B3545"/>
<path d="M75.6696 48.306C75.7955 48.264 75.9634 48.2221 76.0893 48.1801C76.2152 48.1381 76.3831 48.0962 76.5509 48.0962C76.7188 48.0542 76.9286 48.0542 77.1385 48.0542C77.4323 48.0542 77.6841 48.0962 77.8939 48.1801C78.1038 48.264 78.2716 48.348 78.3556 48.5159C78.4815 48.6418 78.5654 48.8516 78.6074 49.0614C78.6494 49.2713 78.6913 49.5231 78.6913 49.8169V52.5868C78.6913 52.5868 78.6494 52.5868 78.6494 52.6288C78.6074 52.6288 78.6074 52.6288 78.5654 52.6288C78.5235 52.6288 78.4815 52.6288 78.4395 52.6288C78.3975 52.6288 78.3136 52.6288 78.2716 52.6288C78.2297 52.6288 78.2297 52.6288 78.1877 52.5868L78.1038 51.9573C77.9779 52.2091 77.81 52.377 77.5582 52.5029C77.3064 52.6288 77.0126 52.7127 76.6768 52.7127C76.2991 52.7127 75.9634 52.5868 75.7116 52.377C75.4597 52.1671 75.3338 51.8314 75.3338 51.3697C75.3338 50.4884 75.8794 50.0687 76.9286 50.0687C77.1805 50.0687 77.3903 50.0687 77.6001 50.1107C77.81 50.1107 77.9359 50.1526 78.0618 50.1526V49.691C78.0618 49.3133 77.9779 49.0614 77.81 48.8936C77.6421 48.7257 77.3903 48.6418 77.0546 48.6418C76.8867 48.6418 76.7188 48.6418 76.5929 48.6837C76.467 48.7257 76.3411 48.7257 76.2152 48.7677C76.0893 48.8096 75.9634 48.8096 75.8375 48.8516L75.7955 48.8096C75.7535 48.7677 75.7535 48.7257 75.7116 48.6837C75.6696 48.6418 75.6696 48.5578 75.6696 48.5159C75.6696 48.4739 75.6696 48.348 75.6696 48.306ZM78.0618 50.4884C77.9779 50.4884 77.81 50.4464 77.6421 50.4464C77.4323 50.4464 77.2644 50.4044 77.0546 50.4044C76.6768 50.4044 76.425 50.4884 76.2571 50.6143C76.0893 50.7402 76.0053 50.992 76.0053 51.2858C76.0053 51.5796 76.0893 51.7894 76.2571 51.9573C76.425 52.0832 76.6349 52.1671 76.8867 52.1671C77.0546 52.1671 77.2644 52.1252 77.3903 52.0832C77.5162 52.0412 77.6841 51.9153 77.768 51.7894C77.852 51.6635 77.9359 51.5376 78.0198 51.3697C78.0618 51.2019 78.1038 51.034 78.1038 50.8241V50.4884H78.0618Z" fill="#2B3545"/>
<path d="M84.9447 48.7677C85.1125 48.5159 85.3224 48.348 85.5742 48.2221C85.826 48.0962 86.0778 48.0122 86.4136 48.0122C86.7913 48.0122 87.127 48.1381 87.3369 48.348C87.5467 48.5578 87.6726 48.8936 87.6726 49.2713V52.4609C87.6307 52.4609 87.6307 52.4609 87.5887 52.5029C87.5467 52.5029 87.5467 52.5029 87.5048 52.5029C87.4628 52.5029 87.4208 52.5029 87.3789 52.5029C87.3369 52.5029 87.2949 52.5029 87.253 52.5029C87.211 52.5029 87.169 52.5029 87.169 52.5029C87.127 52.5029 87.127 52.5029 87.0851 52.4609V49.3972C87.0851 48.8096 86.7913 48.5159 86.2457 48.5159C86.0359 48.5159 85.826 48.5998 85.6162 48.7257C85.4063 48.8516 85.2385 49.0615 85.1126 49.3133V52.5029C85.0706 52.5029 85.0706 52.5029 85.0286 52.5449C84.9866 52.5449 84.9866 52.5449 84.9447 52.5449C84.9027 52.5449 84.8607 52.5449 84.8188 52.5449C84.7768 52.5449 84.7348 52.5449 84.6929 52.5449C84.6509 52.5449 84.6089 52.5449 84.6089 52.5449C84.567 52.5449 84.567 52.5449 84.525 52.5029V49.4392C84.525 48.8516 84.2312 48.5578 83.6856 48.5578C83.4758 48.5578 83.2659 48.6418 83.0561 48.7677C82.8462 48.8936 82.6784 49.1034 82.5525 49.3133V52.5029C82.5105 52.5029 82.5105 52.5029 82.4685 52.5449C82.4266 52.5449 82.4266 52.5449 82.3846 52.5449C82.3426 52.5449 82.3006 52.5449 82.2587 52.5449C82.2167 52.5449 82.1747 52.5449 82.1328 52.5449C82.0908 52.5449 82.0488 52.5449 82.0488 52.5449C82.0069 52.5449 82.0069 52.5449 81.9649 52.5029V48.1801C82.0069 48.1801 82.0069 48.1801 82.0488 48.1801C82.0908 48.1801 82.0908 48.1801 82.1328 48.1801C82.1747 48.1801 82.2167 48.1801 82.2587 48.1801C82.3006 48.1801 82.3426 48.1801 82.3846 48.1801C82.4266 48.1801 82.4685 48.1801 82.4685 48.1801C82.5105 48.1801 82.5105 48.1801 82.5525 48.1801V48.6837C82.7203 48.4739 82.8882 48.306 83.14 48.2221C83.3499 48.0962 83.6436 48.0542 83.8955 48.0542C84.1473 48.0542 84.3991 48.0962 84.567 48.2221C84.6929 48.306 84.8607 48.5159 84.9447 48.7677Z" fill="#2B3545"/>
<path d="M91.4918 47.6345C91.4498 47.6345 91.4498 47.6345 91.4079 47.6765C91.3659 47.6765 91.3239 47.6765 91.282 47.6765C91.24 47.6765 91.198 47.6765 91.1141 47.6765C91.0721 47.6765 90.9882 47.6765 90.9462 47.6765C90.9042 47.6765 90.8623 47.6765 90.8203 47.6765C90.7783 47.6765 90.7783 47.6765 90.7364 47.6345V47.005C90.7783 47.005 90.7783 47.005 90.8203 47.005C90.8623 47.005 90.9042 47.005 90.9462 47.005C90.9882 47.005 91.0301 47.005 91.1141 47.005C91.156 47.005 91.24 47.005 91.282 47.005C91.3239 47.005 91.3659 47.005 91.4079 47.005C91.4498 47.005 91.4498 47.005 91.4918 47.005V47.6345ZM91.4498 52.5029C91.4079 52.5029 91.4079 52.5029 91.3659 52.5448C91.3239 52.5448 91.3239 52.5448 91.282 52.5448C91.24 52.5448 91.198 52.5448 91.156 52.5448C91.1141 52.5448 91.0721 52.5448 91.0301 52.5448C90.9882 52.5448 90.9462 52.5448 90.9462 52.5448C90.9042 52.5448 90.9042 52.5448 90.8623 52.5029V48.1801C90.8623 48.1801 90.9042 48.1801 90.9462 48.1801C90.9882 48.1801 90.9882 48.1801 91.0301 48.1801C91.0721 48.1801 91.1141 48.1801 91.156 48.1801C91.198 48.1801 91.24 48.1801 91.282 48.1801C91.3239 48.1801 91.3659 48.1801 91.3659 48.1801C91.4079 48.1801 91.4079 48.1801 91.4498 48.1801V52.5029Z" fill="#2B3545"/>
<path d="M97.9969 52.5029C97.955 52.5029 97.955 52.5029 97.913 52.5448C97.871 52.5448 97.871 52.5448 97.8291 52.5448C97.7871 52.5448 97.7451 52.5448 97.7032 52.5448C97.6612 52.5448 97.6192 52.5448 97.5773 52.5448C97.5353 52.5448 97.4933 52.5448 97.4933 52.5448C97.4514 52.5448 97.4514 52.5448 97.4094 52.5029V49.4392C97.4094 48.8516 97.1156 48.5578 96.4861 48.5578C96.2343 48.5578 96.0244 48.6418 95.8146 48.7677C95.6047 48.8936 95.4368 49.1034 95.3109 49.3133V52.5029C95.269 52.5029 95.269 52.5029 95.227 52.5448C95.185 52.5448 95.185 52.5448 95.1431 52.5448C95.1011 52.5448 95.0591 52.5448 95.0172 52.5448C94.9752 52.5448 94.9332 52.5448 94.8913 52.5448C94.8493 52.5448 94.8073 52.5448 94.8073 52.5448C94.7653 52.5448 94.7653 52.5448 94.7234 52.5029V48.1801C94.7653 48.1801 94.7653 48.1801 94.8073 48.1801C94.8493 48.1801 94.8493 48.1801 94.8913 48.1801C94.9332 48.1801 94.9752 48.1801 95.0172 48.1801C95.0591 48.1801 95.1011 48.1801 95.1431 48.1801C95.185 48.1801 95.227 48.1801 95.227 48.1801C95.269 48.1801 95.269 48.1801 95.3109 48.1801V48.7257C95.4788 48.5158 95.6887 48.348 95.8985 48.264C96.1503 48.1381 96.4021 48.0962 96.6959 48.0962C97.1156 48.0962 97.4514 48.2221 97.6612 48.4319C97.871 48.6418 97.9969 48.9775 97.9969 49.3552V52.5029Z" fill="#2B3545"/>
<path d="M101.229 48.306C101.354 48.264 101.522 48.2221 101.648 48.1801C101.774 48.1381 101.942 48.0962 102.11 48.0962C102.278 48.0542 102.488 48.0542 102.697 48.0542C102.991 48.0542 103.243 48.0962 103.453 48.1801C103.663 48.264 103.831 48.348 103.915 48.5159C104.04 48.6418 104.124 48.8516 104.166 49.0614C104.208 49.2713 104.25 49.5231 104.25 49.8169V52.5868C104.25 52.5868 104.208 52.5868 104.208 52.6288C104.166 52.6288 104.166 52.6288 104.124 52.6288C104.082 52.6288 104.04 52.6288 103.998 52.6288C103.957 52.6288 103.873 52.6288 103.831 52.6288C103.789 52.6288 103.789 52.6288 103.747 52.5868L103.663 51.9573C103.537 52.2091 103.369 52.377 103.117 52.5029C102.865 52.6288 102.572 52.7127 102.236 52.7127C101.858 52.7127 101.522 52.5868 101.271 52.377C101.019 52.1671 100.893 51.8314 100.893 51.3697C100.893 50.4884 101.438 50.0687 102.488 50.0687C102.739 50.0687 102.949 50.0687 103.159 50.1107C103.369 50.1107 103.495 50.1526 103.621 50.1526V49.691C103.621 49.3133 103.537 49.0614 103.369 48.8936C103.201 48.7257 102.949 48.6418 102.614 48.6418C102.446 48.6418 102.278 48.6418 102.152 48.6837C102.026 48.7257 101.9 48.7257 101.774 48.7677C101.648 48.8096 101.522 48.8096 101.396 48.8516L101.354 48.8096C101.312 48.7677 101.312 48.7257 101.271 48.6837C101.229 48.6418 101.229 48.5578 101.229 48.5159C101.229 48.4739 101.229 48.348 101.229 48.306ZM103.621 50.4884C103.537 50.4884 103.369 50.4464 103.201 50.4464C102.991 50.4464 102.823 50.4044 102.614 50.4044C102.236 50.4044 101.984 50.4884 101.816 50.6143C101.648 50.7402 101.564 50.992 101.564 51.2858C101.564 51.5796 101.648 51.7894 101.816 51.9573C101.984 52.0832 102.194 52.1671 102.446 52.1671C102.614 52.1671 102.823 52.1252 102.949 52.0832C103.075 52.0412 103.243 51.9153 103.327 51.7894C103.411 51.6635 103.495 51.5376 103.579 51.3697C103.621 51.2019 103.663 51.034 103.663 50.8241V50.4884H103.621Z" fill="#2B3545"/>
<path d="M108.237 50.992C108.237 51.4117 108.321 51.6635 108.447 51.8314C108.573 51.9993 108.825 52.0832 109.161 52.0832C109.203 52.0832 109.245 52.0832 109.328 52.0832C109.412 52.0832 109.412 52.0832 109.454 52.0832C109.496 52.0832 109.538 52.0832 109.58 52.0412C109.58 52.0832 109.58 52.0832 109.622 52.1252C109.622 52.1671 109.622 52.1671 109.622 52.2091C109.622 52.2511 109.622 52.293 109.622 52.335C109.622 52.377 109.622 52.419 109.622 52.419C109.622 52.4609 109.622 52.4609 109.622 52.5029C109.622 52.5449 109.622 52.5449 109.622 52.5449C109.58 52.5449 109.496 52.5868 109.412 52.5868C109.329 52.5868 109.203 52.6288 109.035 52.6288C108.783 52.6288 108.573 52.5868 108.405 52.5029C108.237 52.419 108.111 52.335 107.985 52.2091C107.86 52.0832 107.818 51.9153 107.776 51.7055C107.734 51.4956 107.692 51.2858 107.692 51.034V48.5998H107.02C107.02 48.5998 107.02 48.5578 106.978 48.5578C106.978 48.5159 106.978 48.4319 106.978 48.39C106.978 48.348 106.978 48.306 106.978 48.264C106.978 48.2221 106.978 48.2221 106.978 48.1801C106.978 48.1381 106.978 48.1381 107.02 48.1381H107.692V47.3407C107.776 47.2988 107.86 47.2568 107.985 47.2148C108.111 47.1729 108.195 47.1729 108.321 47.2148V48.1381H109.538V48.1801C109.538 48.2221 109.538 48.2221 109.538 48.264C109.538 48.306 109.538 48.306 109.538 48.348C109.538 48.3899 109.538 48.4319 109.538 48.4319C109.538 48.4739 109.538 48.4739 109.538 48.5159C109.538 48.5578 109.538 48.5578 109.538 48.5998H108.321V50.992H108.237Z" fill="#2B3545"/>
<path d="M113.022 47.6345C112.98 47.6345 112.98 47.6345 112.938 47.6765C112.896 47.6765 112.854 47.6765 112.812 47.6765C112.77 47.6765 112.728 47.6765 112.644 47.6765C112.602 47.6765 112.518 47.6765 112.476 47.6765C112.434 47.6765 112.392 47.6765 112.35 47.6765C112.308 47.6765 112.308 47.6765 112.266 47.6345V47.005C112.308 47.005 112.308 47.005 112.35 47.005C112.392 47.005 112.434 47.005 112.476 47.005C112.518 47.005 112.56 47.005 112.644 47.005C112.686 47.005 112.77 47.005 112.812 47.005C112.854 47.005 112.896 47.005 112.938 47.005C112.98 47.005 112.98 47.005 113.022 47.005V47.6345ZM112.98 52.5029C112.938 52.5029 112.938 52.5029 112.896 52.5448C112.854 52.5448 112.854 52.5448 112.812 52.5448C112.77 52.5448 112.728 52.5448 112.686 52.5448C112.644 52.5448 112.602 52.5448 112.56 52.5448C112.518 52.5448 112.476 52.5448 112.476 52.5448C112.434 52.5448 112.434 52.5448 112.392 52.5029V48.1801C112.392 48.1801 112.434 48.1801 112.476 48.1801C112.518 48.1801 112.518 48.1801 112.56 48.1801C112.602 48.1801 112.644 48.1801 112.686 48.1801C112.728 48.1801 112.77 48.1801 112.812 48.1801C112.854 48.1801 112.896 48.1801 112.896 48.1801C112.938 48.1801 112.938 48.1801 112.98 48.1801V52.5029Z" fill="#2B3545"/>
<path d="M116.002 50.3205C116.002 49.9008 116.043 49.5651 116.127 49.2713C116.211 48.9775 116.337 48.7257 116.505 48.5578C116.673 48.39 116.841 48.2221 117.093 48.1381C117.345 48.0542 117.596 48.0122 117.848 48.0122C118.142 48.0122 118.394 48.0542 118.604 48.1381C118.813 48.2221 119.023 48.348 119.191 48.5578C119.359 48.7257 119.485 48.9775 119.569 49.2713C119.653 49.5651 119.695 49.9008 119.695 50.3205C119.695 50.7402 119.653 51.076 119.569 51.3697C119.485 51.6635 119.359 51.9153 119.191 52.0832C119.023 52.2511 118.855 52.419 118.604 52.5029C118.394 52.5868 118.1 52.6288 117.848 52.6288C117.554 52.6288 117.303 52.5868 117.093 52.5029C116.883 52.419 116.673 52.293 116.505 52.0832C116.337 51.9153 116.211 51.6635 116.127 51.3697C116.043 51.076 116.002 50.7402 116.002 50.3205ZM119.023 50.3205C119.023 49.9848 118.981 49.691 118.939 49.4392C118.897 49.1874 118.813 49.0195 118.688 48.8936C118.604 48.7677 118.478 48.6418 118.31 48.5998C118.142 48.5578 118.016 48.5159 117.806 48.5159C117.638 48.5159 117.47 48.5578 117.303 48.5998C117.135 48.6418 117.009 48.7677 116.925 48.8936C116.841 49.0195 116.757 49.2293 116.673 49.4392C116.631 49.691 116.589 49.9848 116.589 50.3205C116.589 50.6563 116.631 50.95 116.673 51.2019C116.715 51.4537 116.799 51.6215 116.925 51.7475C117.009 51.8734 117.135 51.9993 117.303 52.0412C117.47 52.0832 117.596 52.1252 117.806 52.1252C117.974 52.1252 118.142 52.0832 118.31 52.0412C118.478 51.9993 118.604 51.8734 118.688 51.7475C118.771 51.6215 118.855 51.4117 118.939 51.2019C118.981 50.992 119.023 50.6982 119.023 50.3205Z" fill="#2B3545"/>
<path d="M125.99 52.5029C125.948 52.5029 125.948 52.5029 125.906 52.5448C125.864 52.5448 125.864 52.5448 125.822 52.5448C125.78 52.5448 125.738 52.5448 125.696 52.5448C125.654 52.5448 125.612 52.5448 125.57 52.5448C125.528 52.5448 125.486 52.5448 125.486 52.5448C125.444 52.5448 125.444 52.5448 125.403 52.5029V49.4392C125.403 48.8516 125.109 48.5578 124.479 48.5578C124.227 48.5578 124.018 48.6418 123.808 48.7677C123.598 48.8936 123.43 49.1034 123.304 49.3133V52.5029C123.262 52.5029 123.262 52.5029 123.22 52.5448C123.178 52.5448 123.178 52.5448 123.136 52.5448C123.094 52.5448 123.052 52.5448 123.01 52.5448C122.968 52.5448 122.926 52.5448 122.884 52.5448C122.842 52.5448 122.8 52.5448 122.8 52.5448C122.758 52.5448 122.758 52.5448 122.717 52.5029V48.1801C122.758 48.1801 122.758 48.1801 122.8 48.1801C122.842 48.1801 122.842 48.1801 122.884 48.1801C122.926 48.1801 122.968 48.1801 123.01 48.1801C123.052 48.1801 123.094 48.1801 123.136 48.1801C123.178 48.1801 123.22 48.1801 123.22 48.1801C123.262 48.1801 123.262 48.1801 123.304 48.1801V48.7257C123.472 48.5158 123.682 48.348 123.892 48.264C124.143 48.1381 124.395 48.0962 124.689 48.0962C125.109 48.0962 125.444 48.2221 125.654 48.4319C125.864 48.6418 125.99 48.9775 125.99 49.3552V52.5029Z" fill="#2B3545"/>
<path d="M128.97 49.3133C128.97 48.9355 129.096 48.6418 129.348 48.39C129.599 48.1381 129.977 48.0542 130.523 48.0542C130.691 48.0542 130.858 48.0542 131.026 48.0962C131.152 48.1381 131.278 48.1381 131.404 48.1801C131.53 48.2221 131.614 48.2221 131.698 48.264C131.698 48.348 131.698 48.4319 131.656 48.5159C131.614 48.5998 131.572 48.6837 131.53 48.7257C131.446 48.6837 131.362 48.6837 131.278 48.6418C131.194 48.6418 131.11 48.5998 130.984 48.5998C130.858 48.5998 130.733 48.5578 130.607 48.5578C129.935 48.5578 129.599 48.8096 129.599 49.3133C129.599 49.4392 129.641 49.5231 129.683 49.607C129.725 49.691 129.809 49.7749 129.935 49.8169C130.061 49.8589 130.145 49.9428 130.271 49.9848C130.397 50.0267 130.523 50.0687 130.649 50.1107C130.816 50.1526 130.942 50.1946 131.11 50.2785C131.278 50.3205 131.404 50.4045 131.53 50.4884C131.656 50.5723 131.74 50.6982 131.824 50.8241C131.908 50.95 131.95 51.1599 131.95 51.3697C131.95 51.7894 131.824 52.0832 131.572 52.335C131.32 52.5449 130.942 52.6708 130.397 52.6708C130.187 52.6708 129.977 52.6708 129.809 52.6288C129.641 52.5868 129.515 52.5868 129.39 52.5449C129.264 52.5029 129.138 52.4609 129.012 52.4189C129.012 52.335 129.012 52.2511 129.054 52.1671C129.096 52.0832 129.138 51.9993 129.18 51.9573C129.306 51.9993 129.39 52.0412 129.515 52.0832C129.641 52.1252 129.767 52.1252 129.893 52.1671C130.019 52.1671 130.187 52.2091 130.313 52.2091C130.607 52.2091 130.858 52.1671 131.026 52.0412C131.194 51.9153 131.32 51.7474 131.32 51.4537C131.32 51.3278 131.278 51.2019 131.236 51.1179C131.194 51.034 131.11 50.95 130.984 50.9081C130.858 50.8661 130.775 50.7822 130.649 50.7822C130.523 50.7402 130.397 50.6982 130.271 50.6563C130.103 50.6143 129.977 50.5723 129.809 50.4884C129.641 50.4464 129.515 50.3625 129.432 50.2785C129.306 50.1946 129.222 50.0687 129.138 49.9428C128.97 49.691 128.97 49.5231 128.97 49.3133Z" fill="#2B3545"/>
<path d="M139.252 48.6837C139.378 48.4739 139.546 48.306 139.756 48.2221C139.966 48.1382 140.217 48.0542 140.553 48.0542C140.805 48.0542 141.015 48.0962 141.225 48.1801C141.435 48.2641 141.602 48.39 141.728 48.5578C141.854 48.7257 141.98 48.9775 142.064 49.2713C142.148 49.5651 142.19 49.9428 142.19 50.3625C142.19 50.7822 142.148 51.1599 142.064 51.4537C141.98 51.7475 141.896 51.9993 141.728 52.1671C141.56 52.335 141.435 52.4609 141.225 52.5449C141.015 52.6288 140.805 52.6708 140.553 52.6708C140.217 52.6708 139.966 52.6288 139.756 52.5029C139.546 52.377 139.378 52.2091 139.252 51.9993V52.5449C139.21 52.5449 139.21 52.5449 139.168 52.5868C139.126 52.5868 139.126 52.5868 139.084 52.5868C139.042 52.5868 139 52.5868 138.958 52.5868C138.916 52.5868 138.874 52.5868 138.832 52.5868C138.791 52.5868 138.749 52.5868 138.749 52.5868C138.707 52.5868 138.707 52.5868 138.665 52.5449V46.3335C138.707 46.3335 138.707 46.3335 138.749 46.3335C138.791 46.3335 138.791 46.3335 138.832 46.3335C138.874 46.3335 138.916 46.3335 138.958 46.3335C139 46.3335 139.042 46.3335 139.084 46.3335C139.126 46.3335 139.168 46.3335 139.168 46.3335C139.21 46.3335 139.21 46.3335 139.252 46.3335V48.6837ZM141.56 50.3205C141.56 49.9848 141.518 49.691 141.477 49.4811C141.435 49.2713 141.351 49.0615 141.267 48.9356C141.183 48.8096 141.057 48.6837 140.889 48.6418C140.721 48.5998 140.553 48.5578 140.343 48.5578C140.175 48.5578 140.008 48.5998 139.882 48.6837C139.756 48.7677 139.63 48.8516 139.546 48.9775C139.462 49.1034 139.378 49.2293 139.336 49.3552C139.294 49.4811 139.252 49.649 139.252 49.8169V50.9081C139.252 51.076 139.294 51.2019 139.336 51.3697C139.378 51.5376 139.462 51.6635 139.546 51.7894C139.63 51.9153 139.756 51.9993 139.882 52.0832C140.008 52.1671 140.175 52.2091 140.343 52.2091C140.553 52.2091 140.721 52.1671 140.889 52.1252C141.057 52.0832 141.183 51.9573 141.267 51.8314C141.351 51.7055 141.435 51.4956 141.477 51.2858C141.56 50.9501 141.56 50.6563 141.56 50.3205Z" fill="#2B3545"/>
<path d="M145.631 50.5304C145.631 50.8241 145.673 51.0759 145.757 51.2438C145.799 51.4537 145.883 51.6215 146.009 51.7474C146.135 51.8734 146.261 51.9573 146.429 51.9993C146.597 52.0412 146.765 52.0832 146.974 52.0832C147.142 52.0832 147.268 52.0832 147.394 52.0412C147.52 51.9993 147.646 51.9993 147.73 51.9573C147.814 51.9153 147.94 51.8734 148.024 51.8314C148.066 51.8734 148.15 51.9573 148.192 52.0412C148.234 52.1252 148.275 52.2091 148.275 52.293C148.192 52.377 148.066 52.4189 147.94 52.4609C147.814 52.5029 147.688 52.5449 147.52 52.5868C147.352 52.6288 147.142 52.6288 146.932 52.6288C146.303 52.6288 145.841 52.4189 145.547 52.0412C145.254 51.6635 145.086 51.0759 145.086 50.3205C145.086 49.9428 145.128 49.5651 145.212 49.3133C145.296 49.0195 145.422 48.8096 145.589 48.5998C145.757 48.4319 145.925 48.264 146.177 48.1801C146.387 48.0962 146.639 48.0542 146.932 48.0542C147.436 48.0542 147.856 48.1801 148.108 48.4739C148.401 48.7677 148.527 49.1454 148.527 49.649C148.527 49.7749 148.527 49.9008 148.527 49.9848C148.527 50.1107 148.485 50.1946 148.485 50.2785C148.485 50.3625 148.443 50.4464 148.443 50.5304H145.631ZM147.814 49.607C147.814 49.4811 147.814 49.3552 147.772 49.1874C147.73 49.0614 147.688 48.9355 147.604 48.8516C147.52 48.7677 147.436 48.6837 147.31 48.6418C147.184 48.5998 147.016 48.5578 146.849 48.5578C146.513 48.5578 146.219 48.6837 146.009 48.8936C145.799 49.1454 145.673 49.5231 145.631 50.0687H147.814C147.814 50.0267 147.814 49.9848 147.814 49.9008C147.814 49.8169 147.814 49.7329 147.814 49.607Z" fill="#2B3545"/>
<path d="M153.144 48.5578C152.682 48.5578 152.346 48.7257 152.137 49.0195C151.927 49.3133 151.843 49.7749 151.843 50.3625C151.843 50.95 151.969 51.4117 152.179 51.7055C152.388 51.9993 152.724 52.1252 153.186 52.1252C153.312 52.1252 153.438 52.1252 153.522 52.1252C153.605 52.1252 153.689 52.0832 153.773 52.0832C153.857 52.0412 153.941 52.0412 153.983 51.9993C154.025 52.0412 154.109 52.1252 154.109 52.2091C154.151 52.293 154.151 52.377 154.151 52.4609C154.067 52.5029 153.983 52.5448 153.857 52.5868C153.773 52.6288 153.647 52.6288 153.48 52.6708C153.312 52.7127 153.144 52.7127 152.976 52.7127C152.388 52.7127 151.927 52.5029 151.591 52.1252C151.297 51.7474 151.129 51.1599 151.129 50.4044C151.129 49.649 151.297 49.1034 151.591 48.6837C151.885 48.264 152.346 48.0962 152.976 48.0962C153.144 48.0962 153.312 48.0962 153.438 48.1381C153.564 48.1801 153.689 48.1801 153.773 48.2221C153.857 48.264 153.941 48.264 154.025 48.306C154.025 48.3899 154.025 48.4739 153.983 48.5578C153.941 48.6418 153.899 48.6837 153.857 48.7677C153.773 48.7257 153.731 48.7257 153.647 48.6837C153.564 48.6837 153.48 48.6418 153.396 48.6418C153.354 48.5578 153.27 48.5578 153.144 48.5578Z" fill="#2B3545"/>
<path d="M156.711 50.3205C156.711 49.9008 156.753 49.5651 156.837 49.2713C156.921 48.9775 157.047 48.7257 157.215 48.5578C157.383 48.39 157.551 48.2221 157.802 48.1381C158.012 48.0542 158.306 48.0122 158.558 48.0122C158.852 48.0122 159.103 48.0542 159.313 48.1381C159.523 48.2221 159.733 48.348 159.901 48.5578C160.069 48.7257 160.195 48.9775 160.279 49.2713C160.362 49.5651 160.404 49.9008 160.404 50.3205C160.404 50.7402 160.362 51.076 160.279 51.3697C160.195 51.6635 160.069 51.9153 159.901 52.0832C159.733 52.2511 159.565 52.419 159.313 52.5029C159.103 52.5868 158.81 52.6288 158.558 52.6288C158.264 52.6288 158.012 52.5868 157.802 52.5029C157.592 52.419 157.383 52.293 157.215 52.0832C157.047 51.8734 156.921 51.6635 156.837 51.3697C156.753 51.076 156.711 50.7402 156.711 50.3205ZM159.733 50.3205C159.733 49.9848 159.691 49.691 159.649 49.4392C159.607 49.1874 159.523 49.0195 159.397 48.8936C159.313 48.7677 159.187 48.6418 159.019 48.5998C158.852 48.5578 158.726 48.5159 158.516 48.5159C158.348 48.5159 158.18 48.5578 158.012 48.5998C157.844 48.6418 157.718 48.7677 157.634 48.8936C157.551 49.0195 157.467 49.2293 157.383 49.4392C157.341 49.691 157.299 49.9848 157.299 50.3205C157.299 50.6563 157.341 50.95 157.383 51.2019C157.425 51.4537 157.509 51.6215 157.634 51.7475C157.718 51.8734 157.844 51.9993 158.012 52.0412C158.18 52.0832 158.306 52.1252 158.516 52.1252C158.684 52.1252 158.852 52.0832 159.019 52.0412C159.187 51.9993 159.313 51.8734 159.397 51.7475C159.481 51.6215 159.565 51.4117 159.649 51.2019C159.733 50.992 159.733 50.6982 159.733 50.3205Z" fill="#2B3545"/>
<path d="M166.448 48.7677C166.616 48.5159 166.826 48.348 167.077 48.2221C167.329 48.0962 167.581 48.0122 167.917 48.0122C168.295 48.0122 168.63 48.1381 168.84 48.348C169.05 48.5578 169.176 48.8936 169.176 49.2713V52.4609C169.134 52.4609 169.134 52.4609 169.092 52.5029C169.05 52.5029 169.05 52.5029 169.008 52.5029C168.966 52.5029 168.924 52.5029 168.882 52.5029C168.84 52.5029 168.798 52.5029 168.756 52.5029C168.714 52.5029 168.672 52.5029 168.672 52.5029C168.63 52.5029 168.63 52.5029 168.588 52.4609V49.3972C168.588 48.8096 168.295 48.5159 167.749 48.5159C167.539 48.5159 167.329 48.5998 167.119 48.7257C166.91 48.8516 166.742 49.0615 166.616 49.3133V52.5029C166.574 52.5029 166.574 52.5029 166.532 52.5449C166.49 52.5449 166.49 52.5449 166.448 52.5449C166.406 52.5449 166.364 52.5449 166.322 52.5449C166.28 52.5449 166.238 52.5449 166.196 52.5449C166.154 52.5449 166.112 52.5449 166.112 52.5449C166.07 52.5449 166.07 52.5449 166.028 52.5029V49.4392C166.028 48.8516 165.734 48.5578 165.189 48.5578C164.979 48.5578 164.769 48.6418 164.559 48.7677C164.349 48.8936 164.182 49.1034 164.056 49.3133V52.5029C164.014 52.5029 164.014 52.5029 163.972 52.5449C163.93 52.5449 163.93 52.5449 163.888 52.5449C163.846 52.5449 163.804 52.5449 163.762 52.5449C163.72 52.5449 163.678 52.5449 163.636 52.5449C163.594 52.5449 163.552 52.5449 163.552 52.5449C163.51 52.5449 163.51 52.5449 163.468 52.5029V48.1801C163.51 48.1801 163.51 48.1801 163.552 48.1801C163.594 48.1801 163.594 48.1801 163.636 48.1801C163.678 48.1801 163.72 48.1801 163.762 48.1801C163.804 48.1801 163.846 48.1801 163.888 48.1801C163.93 48.1801 163.972 48.1801 163.972 48.1801C164.014 48.1801 164.014 48.1801 164.056 48.1801V48.6837C164.224 48.4739 164.391 48.306 164.643 48.2221C164.853 48.0962 165.147 48.0542 165.399 48.0542C165.651 48.0542 165.902 48.0962 166.07 48.2221C166.238 48.306 166.364 48.5159 166.448 48.7677Z" fill="#2B3545"/>
<path d="M172.743 50.5304C172.743 50.8241 172.785 51.0759 172.869 51.2438C172.911 51.4537 172.995 51.6215 173.121 51.7474C173.247 51.8734 173.373 51.9573 173.541 51.9993C173.709 52.0412 173.876 52.0832 174.086 52.0832C174.254 52.0832 174.38 52.0832 174.506 52.0412C174.632 51.9993 174.758 51.9993 174.842 51.9573C174.926 51.9153 175.051 51.8734 175.135 51.8314C175.177 51.8734 175.261 51.9573 175.303 52.0412C175.345 52.1252 175.345 52.2091 175.387 52.293C175.303 52.377 175.177 52.4189 175.052 52.4609C174.926 52.5029 174.8 52.5449 174.632 52.5868C174.464 52.6288 174.254 52.6288 174.044 52.6288C173.415 52.6288 172.953 52.4189 172.659 52.0412C172.365 51.6635 172.198 51.0759 172.198 50.3205C172.198 49.9428 172.24 49.5651 172.324 49.3133C172.407 49.0195 172.533 48.8096 172.701 48.5998C172.869 48.4319 173.037 48.264 173.289 48.1801C173.499 48.0962 173.75 48.0542 174.044 48.0542C174.548 48.0542 174.968 48.1801 175.219 48.4739C175.513 48.7677 175.639 49.1454 175.639 49.649C175.639 49.7749 175.639 49.9008 175.639 49.9848C175.639 50.1107 175.597 50.1946 175.597 50.2785C175.597 50.3625 175.555 50.4464 175.555 50.5304H172.743ZM174.968 49.607C174.968 49.4811 174.968 49.3552 174.926 49.1874C174.884 49.0614 174.842 48.9355 174.758 48.8516C174.674 48.7677 174.59 48.6837 174.464 48.6418C174.338 48.5998 174.17 48.5578 174.002 48.5578C173.667 48.5578 173.373 48.6837 173.163 48.8936C172.953 49.1034 172.827 49.5231 172.785 50.0687H174.968C174.968 50.0267 174.968 49.9848 174.968 49.9008C174.968 49.8169 174.968 49.7329 174.968 49.607Z" fill="#2B3545"/>
<path d="M182.186 49.3133C182.186 48.9355 182.312 48.6418 182.564 48.39C182.816 48.1381 183.193 48.0542 183.739 48.0542C183.907 48.0542 184.075 48.0542 184.243 48.0962C184.369 48.1381 184.494 48.1381 184.62 48.1801C184.746 48.2221 184.83 48.2221 184.914 48.264C184.914 48.348 184.914 48.4319 184.872 48.5159C184.83 48.5998 184.788 48.6837 184.746 48.7257C184.662 48.6837 184.578 48.6837 184.494 48.6418C184.411 48.6418 184.327 48.5998 184.201 48.5998C184.075 48.5998 183.949 48.5578 183.823 48.5578C183.151 48.5578 182.816 48.8096 182.816 49.3133C182.816 49.4392 182.858 49.5231 182.9 49.607C182.942 49.691 183.026 49.7749 183.151 49.8169C183.277 49.8589 183.361 49.9428 183.487 49.9848C183.613 50.0267 183.739 50.0687 183.865 50.1107C184.033 50.1526 184.159 50.1946 184.327 50.2785C184.494 50.3205 184.62 50.4045 184.746 50.4884C184.872 50.5723 184.956 50.6982 185.04 50.8241C185.124 50.95 185.166 51.1599 185.166 51.3697C185.166 51.7894 185.04 52.0832 184.788 52.335C184.536 52.5449 184.159 52.6708 183.613 52.6708C183.403 52.6708 183.193 52.6708 183.026 52.6288C182.858 52.5868 182.732 52.5868 182.606 52.5449C182.48 52.5029 182.354 52.4609 182.228 52.4189C182.228 52.335 182.228 52.2511 182.27 52.1671C182.312 52.0832 182.354 51.9993 182.396 51.9573C182.522 51.9993 182.606 52.0412 182.732 52.0832C182.858 52.1252 182.984 52.1252 183.109 52.1671C183.235 52.1671 183.403 52.2091 183.529 52.2091C183.823 52.2091 184.075 52.1671 184.243 52.0412C184.411 51.9153 184.536 51.7474 184.536 51.4537C184.536 51.3278 184.494 51.2019 184.452 51.1179C184.411 51.034 184.327 50.95 184.201 50.9081C184.117 50.8661 183.991 50.7822 183.865 50.7822C183.739 50.7402 183.613 50.6982 183.487 50.6563C183.319 50.6143 183.193 50.5723 183.026 50.4884C182.858 50.4464 182.732 50.3625 182.648 50.2785C182.522 50.1946 182.438 50.0687 182.354 49.9428C182.186 49.691 182.186 49.5231 182.186 49.3133Z" fill="#2B3545"/>
<path d="M188.691 47.6345C188.649 47.6345 188.649 47.6345 188.607 47.6765C188.565 47.6765 188.523 47.6765 188.481 47.6765C188.44 47.6765 188.398 47.6765 188.314 47.6765C188.272 47.6765 188.188 47.6765 188.146 47.6765C188.104 47.6765 188.062 47.6765 188.02 47.6765C187.978 47.6765 187.978 47.6765 187.936 47.6345V47.005C187.978 47.005 187.978 47.005 188.02 47.005C188.062 47.005 188.104 47.005 188.146 47.005C188.188 47.005 188.23 47.005 188.314 47.005C188.356 47.005 188.44 47.005 188.481 47.005C188.523 47.005 188.565 47.005 188.607 47.005C188.649 47.005 188.691 47.005 188.691 47.005V47.6345ZM188.649 52.5029C188.607 52.5029 188.607 52.5029 188.565 52.5448C188.523 52.5448 188.523 52.5448 188.481 52.5448C188.44 52.5448 188.398 52.5448 188.356 52.5448C188.314 52.5448 188.272 52.5448 188.23 52.5448C188.188 52.5448 188.146 52.5448 188.146 52.5448C188.104 52.5448 188.104 52.5448 188.062 52.5029V48.1801C188.062 48.1801 188.104 48.1801 188.146 48.1801C188.188 48.1801 188.188 48.1801 188.23 48.1801C188.272 48.1801 188.314 48.1801 188.356 48.1801C188.398 48.1801 188.44 48.1801 188.481 48.1801C188.523 48.1801 188.565 48.1801 188.565 48.1801C188.607 48.1801 188.607 48.1801 188.649 48.1801V52.5029Z" fill="#2B3545"/>
<path d="M194.945 48.7677C195.113 48.5159 195.322 48.348 195.574 48.2221C195.826 48.0962 196.078 48.0122 196.414 48.0122C196.791 48.0122 197.127 48.1381 197.337 48.348C197.547 48.5578 197.673 48.8936 197.673 49.2713V52.4609C197.631 52.4609 197.631 52.4609 197.589 52.5029C197.547 52.5029 197.547 52.5029 197.505 52.5029C197.463 52.5029 197.421 52.5029 197.379 52.5029C197.337 52.5029 197.295 52.5029 197.253 52.5029C197.211 52.5029 197.169 52.5029 197.169 52.5029C197.127 52.5029 197.127 52.5029 197.085 52.4609V49.3972C197.085 48.8096 196.791 48.5159 196.246 48.5159C196.036 48.5159 195.826 48.5998 195.616 48.7257C195.406 48.8516 195.238 49.0615 195.113 49.3133V52.5029C195.071 52.5029 195.071 52.5029 195.029 52.5449C194.987 52.5449 194.987 52.5449 194.945 52.5449C194.903 52.5449 194.861 52.5449 194.819 52.5449C194.777 52.5449 194.735 52.5449 194.693 52.5449C194.651 52.5449 194.609 52.5449 194.609 52.5449C194.567 52.5449 194.567 52.5449 194.525 52.5029V49.4392C194.525 48.8516 194.231 48.5578 193.686 48.5578C193.476 48.5578 193.266 48.6418 193.056 48.7677C192.846 48.8936 192.678 49.1034 192.552 49.3133V52.5029C192.51 52.5029 192.511 52.5029 192.469 52.5449C192.427 52.5449 192.427 52.5449 192.385 52.5449C192.343 52.5449 192.301 52.5449 192.259 52.5449C192.217 52.5449 192.175 52.5449 192.133 52.5449C192.091 52.5449 192.049 52.5449 192.049 52.5449C192.007 52.5449 192.007 52.5449 191.965 52.5029V48.1801C192.007 48.1801 192.007 48.1801 192.049 48.1801C192.091 48.1801 192.091 48.1801 192.133 48.1801C192.175 48.1801 192.217 48.1801 192.259 48.1801C192.301 48.1801 192.343 48.1801 192.385 48.1801C192.427 48.1801 192.469 48.1801 192.469 48.1801C192.511 48.1801 192.51 48.1801 192.552 48.1801V48.6837C192.72 48.4739 192.888 48.306 193.14 48.2221C193.35 48.0962 193.644 48.0542 193.895 48.0542C194.147 48.0542 194.399 48.0962 194.567 48.2221C194.693 48.306 194.861 48.5159 194.945 48.7677Z" fill="#2B3545"/>
<path d="M201.408 48.6837C201.534 48.4739 201.702 48.306 201.911 48.2221C202.121 48.1381 202.373 48.0542 202.709 48.0542C202.961 48.0542 203.171 48.0962 203.38 48.1801C203.59 48.264 203.758 48.3899 203.884 48.5578C204.01 48.7257 204.136 48.9775 204.22 49.2713C204.304 49.5651 204.346 49.9428 204.346 50.3625C204.346 50.7822 204.304 51.1599 204.22 51.4537C204.136 51.7474 204.052 51.9993 203.884 52.1671C203.716 52.335 203.59 52.4609 203.38 52.5449C203.171 52.6288 202.961 52.6708 202.709 52.6708C202.373 52.6708 202.121 52.6288 201.911 52.5029C201.702 52.377 201.534 52.2091 201.408 51.9993V54.5174C201.366 54.5174 201.366 54.5174 201.324 54.5594C201.282 54.5594 201.282 54.5594 201.24 54.5594C201.198 54.5594 201.156 54.5594 201.114 54.5594C201.072 54.5594 201.03 54.5594 200.988 54.5594C200.946 54.5594 200.904 54.5594 200.904 54.5594C200.862 54.5594 200.862 54.5594 200.82 54.5174V48.1801C200.862 48.1801 200.862 48.1801 200.904 48.1801C200.946 48.1801 200.946 48.1801 200.988 48.1801C201.03 48.1801 201.072 48.1801 201.114 48.1801C201.156 48.1801 201.198 48.1801 201.24 48.1801C201.282 48.1801 201.324 48.1801 201.324 48.1801C201.366 48.1801 201.366 48.1801 201.408 48.1801V48.6837ZM203.758 50.3205C203.758 49.9848 203.716 49.691 203.674 49.4811C203.632 49.2713 203.548 49.0614 203.464 48.9355C203.38 48.8096 203.254 48.6837 203.087 48.6418C202.919 48.5998 202.751 48.5578 202.541 48.5578C202.373 48.5578 202.205 48.5998 202.079 48.6837C201.953 48.7677 201.828 48.8516 201.744 48.9775C201.66 49.1034 201.576 49.2293 201.534 49.3552C201.492 49.4811 201.45 49.649 201.45 49.8169V50.9081C201.45 51.076 201.492 51.2019 201.534 51.3697C201.576 51.5376 201.66 51.6635 201.744 51.7894C201.828 51.9153 201.953 51.9993 202.079 52.0832C202.205 52.1671 202.373 52.2091 202.541 52.2091C202.751 52.2091 202.919 52.1671 203.087 52.1252C203.254 52.0832 203.38 51.9573 203.464 51.8314C203.548 51.7055 203.632 51.4956 203.674 51.2858C203.716 50.95 203.758 50.6563 203.758 50.3205Z" fill="#2B3545"/>
<path d="M208.039 52.5029C207.997 52.5029 207.997 52.5029 207.955 52.5448C207.913 52.5448 207.913 52.5448 207.871 52.5448C207.829 52.5448 207.787 52.5448 207.745 52.5448C207.703 52.5448 207.661 52.5448 207.619 52.5448C207.577 52.5448 207.535 52.5448 207.535 52.5448C207.493 52.5448 207.493 52.5448 207.451 52.5029V46.2915C207.451 46.2915 207.493 46.2915 207.535 46.2915C207.577 46.2915 207.577 46.2915 207.619 46.2915C207.661 46.2915 207.703 46.2915 207.745 46.2915C207.787 46.2915 207.829 46.2915 207.871 46.2915C207.913 46.2915 207.955 46.2915 207.955 46.2915C207.997 46.2915 207.997 46.2915 208.039 46.2915V52.5029Z" fill="#2B3545"/>
<path d="M211.69 50.5304C211.69 50.8241 211.732 51.0759 211.816 51.2438C211.858 51.4537 211.942 51.6215 212.068 51.7474C212.194 51.8734 212.32 51.9573 212.488 51.9993C212.655 52.0412 212.823 52.0832 213.033 52.0832C213.201 52.0832 213.327 52.0832 213.453 52.0412C213.579 51.9993 213.705 51.9993 213.789 51.9573C213.873 51.9153 213.998 51.8734 214.082 51.8314C214.124 51.8734 214.208 51.9573 214.25 52.0412C214.292 52.1252 214.292 52.2091 214.334 52.293C214.25 52.377 214.124 52.4189 213.998 52.4609C213.873 52.5029 213.747 52.5449 213.579 52.5868C213.411 52.6288 213.201 52.6288 212.991 52.6288C212.362 52.6288 211.9 52.4189 211.606 52.0412C211.312 51.6635 211.145 51.0759 211.145 50.3205C211.145 49.9428 211.187 49.5651 211.271 49.3133C211.354 49.0195 211.48 48.8096 211.648 48.5998C211.816 48.4319 211.984 48.264 212.236 48.1801C212.446 48.0962 212.697 48.0542 212.991 48.0542C213.495 48.0542 213.915 48.1801 214.166 48.4739C214.46 48.7677 214.586 49.1454 214.586 49.649C214.586 49.7749 214.586 49.9008 214.586 49.9848C214.586 50.1107 214.544 50.1946 214.544 50.2785C214.544 50.3625 214.502 50.4464 214.502 50.5304H211.69ZM213.915 49.607C213.915 49.4811 213.915 49.3552 213.873 49.1874C213.831 49.0614 213.789 48.9355 213.705 48.8516C213.621 48.7677 213.537 48.6837 213.411 48.6418C213.285 48.5998 213.117 48.5578 212.949 48.5578C212.614 48.5578 212.32 48.6837 212.11 48.8936C211.9 49.1454 211.774 49.5231 211.732 50.0687H213.915C213.915 50.0267 213.915 49.9848 213.915 49.9008C213.915 49.8169 213.915 49.7329 213.915 49.607Z" fill="#2B3545"/>
<path d="M218.363 48.4319C218.447 48.348 218.573 48.2641 218.657 48.1801C218.741 48.1381 218.867 48.0962 218.951 48.0542C219.035 48.0122 219.161 48.0122 219.245 48.0122C219.412 48.0122 219.58 48.0542 219.706 48.0962C219.832 48.1381 219.916 48.1801 220 48.2221C219.958 48.4319 219.874 48.5998 219.706 48.7257C219.622 48.6837 219.496 48.5998 219.412 48.5998C219.328 48.5578 219.203 48.5578 219.119 48.5578C218.909 48.5578 218.741 48.6418 218.573 48.8096C218.405 48.9775 218.237 49.1454 218.111 49.3972V52.4609C218.069 52.4609 218.069 52.4609 218.027 52.5029C217.986 52.5029 217.986 52.5029 217.944 52.5029C217.902 52.5029 217.86 52.5029 217.818 52.5029C217.776 52.5029 217.734 52.5029 217.692 52.5029C217.65 52.5029 217.608 52.5029 217.608 52.5029C217.566 52.5029 217.566 52.5029 217.524 52.4609V48.1381C217.566 48.1381 217.566 48.1381 217.608 48.1381C217.65 48.1381 217.65 48.1381 217.692 48.1381C217.734 48.1381 217.776 48.1381 217.818 48.1381C217.86 48.1381 217.902 48.1381 217.944 48.1381C217.986 48.1381 218.027 48.1381 218.027 48.1381C218.069 48.1381 218.069 48.1381 218.111 48.1381V48.8096C218.195 48.6837 218.279 48.5578 218.363 48.4319Z" fill="#2B3545"/>
<path d="M8.26784 36.5128C8.68753 38.2755 9.06524 40.0801 9.48493 41.8428C9.06524 40.0801 8.68753 38.2755 8.26784 36.5128Z" fill="#FEFEFE"/>
<path d="M219.958 42.2625C219.958 41.4231 220.084 41.549 219.245 41.549C163.426 41.549 107.608 41.549 51.7894 41.549C51.6215 41.549 51.4956 41.549 51.3277 41.549C50.2785 41.633 49.4391 42.0526 49.0195 43.0599C48.5998 44.0252 47.9283 44.7386 47.2987 45.5361C47.1728 45.7039 46.963 45.8298 46.7532 45.9557C45.578 46.7112 44.277 47.1309 42.892 47.2148C39.5765 47.5086 37.0584 46.2495 35.6734 42.976C35.2537 41.9687 35.0439 40.8775 34.876 39.8283C34.834 39.5765 34.918 39.4926 35.1698 39.4926C36.4708 39.4086 37.7718 39.2827 39.0729 39.1988C41.7169 39.0309 44.319 38.8211 46.963 38.6532C50.5723 38.4014 54.2236 38.1496 57.8329 37.8977C58.2526 37.8558 58.4205 37.7299 58.4205 37.3102C58.3365 35.5475 58.2106 33.8268 57.9168 32.1061C57.2873 28.6227 56.0702 25.3911 53.678 22.6631C52.5029 21.3621 51.2018 20.2289 49.5231 19.6414C45.1583 18.0885 40.206 19.7673 37.52 23.6284C37.2682 24.0061 37.0164 24.09 36.5547 24.0481C33.1553 23.6704 30.1755 24.7615 27.6993 27.1538C26.1885 28.6227 25.1812 30.3853 25.0133 32.5677C24.8874 34.2465 24.8455 35.9252 24.9714 37.604C25.1812 40.29 25.6009 42.976 26.6501 45.4941C28.6227 50.2785 31.9802 53.5101 37.0584 54.6852C41.2133 55.6085 45.2842 55.2308 49.1873 53.636C53.2583 51.9573 56.1122 49.0195 57.5391 44.8226C57.707 44.319 57.9168 44.1931 58.4205 44.1931C85.2385 44.1931 112.056 44.1931 138.833 44.1931H219.161C219.329 44.1931 219.454 44.1931 219.622 44.1931C219.874 44.235 219.958 44.1091 219.958 43.8573C219.958 43.3117 220 42.7661 219.958 42.2625ZM34.4143 32.9874C34.4563 32.8615 34.4143 32.7356 34.4143 32.4838C34.5402 29.7558 35.6314 27.4895 38.3594 26.3983C40.7936 25.3911 43.3117 25.3911 45.5361 26.9859C47.005 28.0351 47.5925 29.6299 48.0122 31.3087C48.306 32.5258 48.264 32.4838 47.0469 32.5677C43.4796 32.8195 39.8703 33.0713 36.3029 33.3232C35.8413 33.3651 35.3796 33.3651 34.876 33.4071C34.5402 33.491 34.3304 33.4071 34.4143 32.9874Z" fill="#F99D21"/>
<path d="M49.9428 12.9264C51.034 15.3186 52.0832 17.7528 53.1744 20.187C53.2583 20.3129 53.3003 20.4807 53.3422 20.6486C52.2091 19.7253 50.992 19.0118 49.607 18.5502C45.0324 17.1232 39.9122 18.76 37.0164 22.5792C36.7646 22.9149 36.5128 22.9989 36.1351 22.9569C30.3014 22.4533 24.9294 26.5662 23.9222 32.3159C23.8382 32.7776 23.7963 33.2812 23.7543 33.7848C23.5444 33.575 23.4605 33.2812 23.3766 33.0294C22.3693 30.805 21.404 28.5807 20.3968 26.3144C20.2709 26.0206 20.2709 25.8108 20.4807 25.5589C23.1248 21.9916 26.4403 19.2217 30.2594 17.0393C30.3853 16.9554 30.5532 16.8714 30.6791 16.7875C30.7211 16.7455 30.847 16.7875 30.805 16.7035C30.7631 16.6196 30.6791 16.6616 30.6372 16.7455C29.3361 17.0393 28.119 17.5429 26.9019 18.0885C23.2087 19.6833 19.8932 21.8657 17.1652 24.8455C16.9134 25.1393 16.6196 25.3911 16.4098 25.7268C16.032 26.3983 15.4445 26.6082 14.6891 26.7341C12.6746 27.0698 10.6181 27.4895 8.60359 27.8672C8.30981 27.9092 8.1839 28.0351 8.1839 28.3708C8.1839 30.2594 8.1839 32.148 8.1839 33.9947C8.1839 34.1625 8.1839 34.3304 8.35177 34.4563C9.14918 35.0858 9.10721 35.8413 8.3098 36.5128C7.84815 36.7226 7.42846 36.7226 6.96681 36.5547C6.12743 35.8413 6.08546 35.2118 6.92484 34.4983C7.09271 34.3304 7.05074 34.1625 7.05074 33.9947C7.05074 32.232 7.05074 30.4273 7.05074 28.6646C7.05074 28.203 6.88287 28.203 6.54712 28.2449C4.53262 28.6227 2.51812 29.0004 0.461656 29.4201C0.33575 29.4201 0.251812 29.462 0 29.504C0.545593 28.9164 1.00725 28.3708 1.4689 27.8672C9.61084 18.718 17.7947 9.61084 25.9367 0.503625C26.2724 0.167875 26.6082 0 27.0698 0C32.8195 0.0419687 38.5692 0.0419687 44.277 0.0419687C48.9355 0.0419687 53.5941 0.0419687 58.2526 0.0419687C60.6448 0.0419687 63.037 0.0419687 65.3873 0.0839374C65.5132 0.0839374 65.6391 0.0839374 65.8909 0.125906C65.2614 0.629531 64.7158 1.04922 64.1702 1.4689C59.5116 5.03625 54.8531 8.60359 50.1106 12.1709C49.8169 12.4227 49.8169 12.5906 49.9428 12.9264Z" fill="#2B3545"/>
<path d="M184.452 37.8138C180.675 37.8138 176.94 37.8138 173.163 37.8138C172.743 37.8138 172.617 37.6879 172.617 37.2682C172.659 36.3869 172.617 36.3869 173.499 36.303C174.128 36.261 174.758 36.219 175.345 36.0511C176.394 35.7993 177.066 35.0439 177.15 33.9947C177.15 33.7848 177.192 33.575 177.192 33.3232C177.192 26.7341 177.192 20.145 177.192 13.5979C177.192 13.388 177.318 13.0943 177.066 13.0523C176.814 13.0103 176.814 13.3461 176.73 13.5559C173.541 21.3201 170.393 29.1263 167.203 36.8905C167.035 37.3522 166.742 37.3522 166.364 37.3941C165.944 37.4361 165.86 37.1843 165.734 36.8905C162.755 28.9584 159.733 20.9844 156.711 13.0523C156.669 12.9684 156.627 12.8844 156.585 12.7585C156.543 12.6326 156.501 12.5067 156.333 12.5487C156.208 12.5906 156.25 12.7165 156.25 12.8005C156.25 12.8844 156.25 13.0103 156.25 13.0943V29.7978C156.25 30.9729 156.333 32.19 156.585 33.3651C156.837 34.6242 157.551 35.4636 158.81 35.8413C159.523 36.0092 160.195 36.261 160.908 36.3869C161.202 36.4289 161.286 36.5128 161.286 36.8485C161.286 37.8978 161.286 37.8978 160.279 37.8978C156.837 37.8978 153.438 37.8978 149.996 37.8978C149.618 37.8978 149.493 37.8138 149.493 37.3941C149.535 36.4708 149.493 36.4708 150.416 36.3449C150.794 36.303 151.171 36.219 151.549 36.1351C153.312 35.6734 153.941 34.7921 154.151 32.7356C154.193 31.9802 154.235 31.2667 154.235 30.5113C154.235 25.3911 154.235 20.2289 154.235 15.1088C154.235 13.8917 153.983 12.7165 152.976 11.8772C152.221 11.2476 151.297 10.9958 150.332 10.8699C150.122 10.8279 149.744 10.9119 149.702 10.702C149.618 10.2824 149.66 9.86267 149.66 9.44298C149.66 9.31707 149.87 9.35904 149.954 9.35904C153.06 9.35904 156.166 9.35904 159.271 9.35904C159.607 9.35904 159.649 9.56888 159.733 9.77873C160.95 12.8844 162.167 16.0321 163.384 19.1377C164.853 22.873 166.28 26.6082 167.707 30.3434C167.749 30.4273 167.791 30.5113 167.875 30.7211C168.63 28.7486 169.386 26.86 170.141 25.0134C171.736 20.9844 173.331 16.9554 174.926 12.9264C175.345 11.8772 175.639 10.8279 175.849 9.73676C175.891 9.44298 176.017 9.40101 176.269 9.40101C179.206 9.40101 182.102 9.40101 185.04 9.40101C185.334 9.40101 185.46 9.48495 185.46 9.77873C185.46 10.786 185.46 10.786 184.494 10.9539C183.949 11.0378 183.361 11.1637 182.816 11.2896C182.06 11.4994 181.641 12.045 181.557 12.8005C181.515 13.0523 181.515 13.3041 181.515 13.5559C181.515 20.2709 181.515 26.9859 181.515 33.7009C181.515 35.2118 182.06 35.8833 183.487 36.219C184.033 36.3449 184.62 36.4289 185.166 36.4708C185.418 36.5128 185.46 36.5548 185.46 36.8066C185.544 37.8138 185.586 37.8138 184.452 37.8138Z" fill="#214591"/>
<path d="M117.848 36.8905C117.848 37.8138 117.848 37.8138 116.883 37.8138C112.854 37.8138 108.825 37.8138 104.796 37.8138C104.334 37.8138 104.208 37.7299 104.208 37.2682C104.25 36.4289 104.208 36.4289 105.048 36.3449C105.761 36.3029 106.475 36.219 107.188 36.0092C107.944 35.7154 108.111 35.4216 107.776 34.6662C107.23 33.3232 106.433 32.1061 105.635 30.9309C104.502 29.1683 103.327 27.4056 102.152 25.559C101.438 26.5242 100.767 27.4056 100.137 28.2869C98.8363 30.0916 97.4933 31.8962 96.3602 33.7848C96.1923 34.0366 96.0664 34.3304 95.9405 34.5822C95.6047 35.2537 95.8985 35.8413 96.612 36.0931C97.3255 36.3029 98.0809 36.3449 98.7944 36.3869C99.1301 36.3869 99.1721 36.5128 99.1721 36.8066C99.1721 37.8558 99.1721 37.8558 98.1648 37.8558C95.0172 37.8558 91.8695 37.8558 88.7638 37.8558C88.3861 37.8558 88.2602 37.7718 88.3022 37.3941C88.3022 36.4289 88.3022 36.3869 89.2675 36.3449C90.9042 36.219 92.2053 35.4636 93.1706 34.2465C94.9752 31.9802 96.6959 29.6719 98.4586 27.4056C99.256 26.3983 100.011 25.3491 100.767 24.2999C100.935 24.09 100.977 23.9222 100.767 23.6284C98.3747 20.2289 95.9405 16.7875 93.5902 13.3461C92.541 11.7932 91.1561 10.9538 89.2675 10.8279C89.0156 10.8279 88.6379 10.8699 88.596 10.6601C88.512 10.2823 88.512 9.82069 88.554 9.401C88.596 9.19115 88.8478 9.27509 89.0156 9.27509C90.6944 9.27509 92.4151 9.27509 94.0939 9.27509C96.57 9.27509 99.0462 9.27509 101.564 9.27509C101.9 9.27509 102.068 9.31706 102.026 9.73675C101.984 10.702 102.026 10.702 101.061 10.786C100.347 10.8699 99.6337 10.9538 98.9203 11.2057C98.2907 11.4155 98.1648 11.6673 98.4166 12.2968C98.6685 12.8844 98.9622 13.43 99.298 13.9756C100.641 16.158 102.026 18.3403 103.495 20.4388C103.663 20.6906 103.789 20.7326 103.998 20.4388C105.509 18.3823 107.062 16.3258 108.447 14.1435C108.783 13.6398 109.077 13.1362 109.287 12.5906C109.622 11.7932 109.412 11.3735 108.615 11.0378C107.944 10.786 107.188 10.744 106.475 10.702C106.139 10.702 106.055 10.5761 106.055 10.2404C106.055 9.23312 106.055 9.23312 107.062 9.23312C110.168 9.23312 113.274 9.23312 116.379 9.23312C116.799 9.23312 116.925 9.31706 116.925 9.73675C116.883 10.6601 116.925 10.6601 115.96 10.744C114.323 10.9119 113.022 11.6253 111.973 12.9264C109.622 15.9061 107.314 18.9279 105.048 21.9496C104.88 22.1595 104.88 22.3274 105.048 22.5372C107.482 26.0206 109.958 29.546 112.392 33.0714C112.77 33.6169 113.232 34.0786 113.651 34.5822C114.659 35.7574 115.876 36.3449 117.387 36.261C117.806 36.3449 117.848 36.5128 117.848 36.8905Z" fill="#214591"/>
<path d="M87.5467 30.5113C87.3789 32.7356 87.211 34.9599 87.1271 37.1843C87.0851 37.7299 86.9172 37.8138 86.4555 37.8138C82.6364 37.8138 78.8172 37.8138 75.0401 37.8138C71.1789 37.8138 67.3178 37.8138 63.4567 37.8138C63.079 37.8138 62.9531 37.7299 62.9531 37.3102C62.995 36.3449 62.9531 36.3449 63.9183 36.261C64.422 36.219 64.9676 36.1351 65.4712 36.0511C66.5204 35.8413 67.108 35.1698 67.108 34.0786C67.108 32.2739 67.108 30.4693 67.108 28.7066V13.43C67.108 12.2129 66.7303 11.7093 65.5971 11.2896C64.8836 11.0378 64.1282 10.8699 63.3728 10.786C63.1209 10.744 62.9531 10.702 62.9531 10.3663C62.9531 9.27509 62.9531 9.27509 64.0023 9.27509H84.7348C85.4063 9.27509 85.4063 9.27508 85.4063 9.98855C85.4063 11.9191 85.4063 13.8077 85.4063 15.7383C85.4063 16.074 85.3224 16.1999 84.9866 16.1999C83.9794 16.1999 83.9794 16.1999 83.5597 15.2346C83.0141 14.0595 82.2167 13.0523 81.3354 12.087C80.454 11.1217 79.3209 10.9538 78.1038 10.9538C76.0053 10.9119 73.9069 10.9538 71.8085 10.9119C71.5147 10.9119 71.4307 10.9958 71.4307 11.2896C71.4307 14.815 71.4307 18.3403 71.4307 21.8657C71.4307 22.0336 71.3888 22.2434 71.6826 22.2434C73.1934 22.2014 74.6623 22.3274 76.1732 22.1595C77.4323 22.0336 78.2297 21.3201 78.7333 20.2289C79.0691 19.4735 79.3209 18.6761 79.4468 17.8787C79.4887 17.6269 79.5727 17.5849 79.7825 17.5849C81.0416 17.5429 81.0416 17.5429 81.0416 18.76C81.0416 21.9496 81.0416 25.0973 81.0416 28.2869C81.0416 28.7066 80.9157 28.8325 80.496 28.7905C79.4887 28.7486 79.4887 28.7905 79.2789 27.8253C79.153 27.2377 78.9431 26.6501 78.7333 26.1045C78.2297 24.7615 77.2224 24.09 75.8375 23.9641C74.4525 23.8382 73.1095 23.9222 71.7245 23.8802C71.4727 23.8802 71.3888 24.0061 71.3888 24.2579C71.4307 27.3636 71.3468 30.5113 71.4307 33.6169C71.4727 35.1698 72.0603 35.8832 73.6131 36.0511C76.1312 36.3449 78.6913 36.3869 81.2514 35.9252C82.1328 35.7573 82.8462 35.3377 83.3499 34.5822C84.3991 33.1133 85.1965 31.5185 85.91 29.8817C86.0359 29.546 86.2037 29.462 86.5395 29.462C87.6307 29.4201 87.6307 29.4201 87.5467 30.5113Z" fill="#214491"/>
<path d="M148.024 36.3449C146.093 36.1351 144.834 35.1278 144.121 33.2812C141.183 25.6429 138.161 18.0466 135.139 10.4082C134.678 9.23312 134.678 9.23312 133.377 9.23312C133.083 9.23312 132.957 9.35903 132.873 9.61084C131.32 13.5139 129.809 17.3751 128.256 21.2781C126.662 25.2652 125.067 29.2942 123.43 33.2812C122.758 34.918 121.541 35.9252 119.779 36.219C118.897 36.3869 118.939 36.3869 118.897 37.2682C118.897 37.6879 119.023 37.7718 119.443 37.7718C122.549 37.7718 125.612 37.7718 128.718 37.7718C129.767 37.7718 129.767 37.7718 129.725 36.7226C129.725 36.4288 129.641 36.3869 129.348 36.3449C128.382 36.261 127.417 36.1351 126.494 35.7154C125.696 35.3796 125.444 34.9599 125.612 34.0786C125.99 32.0641 126.787 30.2175 127.459 28.2869C127.543 28.0351 127.753 28.0351 127.921 28.0351C131.026 28.0351 134.09 28.0351 137.196 28.0351C137.531 28.0351 137.615 28.161 137.741 28.4128C138.161 29.504 138.581 30.5952 138.958 31.7284C139.336 32.7356 139.798 33.7429 140.092 34.7921C140.217 35.2957 140.008 35.5895 139.546 35.7573C138.874 36.0511 138.119 36.177 137.406 36.219C136.44 36.3449 136.482 36.3449 136.44 37.2682C136.44 37.604 136.524 37.7299 136.902 37.7299C138.749 37.7299 140.595 37.7299 142.442 37.7299H147.436C148.443 37.7299 148.401 37.7299 148.443 36.7226C148.485 36.4708 148.359 36.3869 148.024 36.3449ZM128.34 26.3144C129.767 22.7051 131.152 19.1377 132.579 15.4865C134.048 19.1797 135.475 22.747 136.902 26.3144H128.34Z" fill="#214591"/>
<path d="M220 37.3102C220 37.6879 219.874 37.8138 219.496 37.8138C218.027 37.8977 218.027 37.9397 218.027 36.4708V28.4128C218.027 25.5589 215.929 24.2999 213.369 25.5589C212.53 25.9786 211.942 26.5662 211.438 27.3636C211.312 27.5734 211.312 27.7833 211.312 28.0351C211.312 31.0988 211.312 34.1625 211.312 37.2682C211.312 37.6879 211.187 37.8138 210.767 37.8558C209.34 37.9397 209.34 37.9397 209.34 36.5128C209.34 32.4838 209.34 28.4548 209.34 24.4258C209.34 24.0481 209.466 23.8802 209.844 23.8382C209.886 23.8382 209.928 23.8382 209.969 23.8382C211.103 23.7123 211.312 23.8802 211.312 24.9714V25.5589C211.984 24.8455 212.655 24.2999 213.495 23.9641C214.754 23.4605 216.013 23.3766 217.272 23.7123C218.951 24.132 219.958 25.5589 219.958 27.3636C219.958 29.6299 219.958 31.8542 219.958 34.1206C219.958 35.1698 219.958 36.261 220 37.3102Z" fill="#214491"/>
<path d="M206.234 24.6356C204.681 28.8325 203.171 33.0294 201.618 37.2263C201.45 37.6459 201.24 37.7719 200.82 37.8138C199.267 37.8558 199.267 37.8978 198.722 36.4289C197.211 32.3999 195.7 28.4128 194.189 24.3838C194.063 24.0061 194.063 23.8382 194.525 23.8382C194.609 23.8382 194.735 23.7963 194.819 23.7963C195.91 23.7123 196.078 23.7963 196.456 24.8035C197.505 27.5735 198.554 30.3854 199.561 33.1973C199.855 34.0366 200.065 34.876 200.359 35.7574C201.492 31.9382 203.045 28.3289 204.346 24.6356C204.639 23.8802 204.765 23.7543 205.605 23.7963C206.528 23.8382 206.528 23.8382 206.234 24.6356Z" fill="#234692"/>
<path d="M8.8554 42.6402C7.97406 42.6402 7.13468 42.6402 6.25334 42.6402C5.70775 42.6402 5.58184 42.4723 5.70775 41.9687C6.12743 40.1641 6.54712 38.3594 6.96681 36.5548C7.42846 36.7226 7.84815 36.7646 8.3098 36.5128C8.72949 38.2755 9.10721 40.0801 9.5269 41.8428C9.6528 42.5143 9.5269 42.6402 8.8554 42.6402Z" fill="#F99D21"/>
<path d="M192.427 36.7226C192.427 37.8138 192.427 37.8138 191.335 37.8138C190.16 37.8138 190.16 37.8138 190.16 36.6387C190.16 35.5895 190.16 35.5895 191.209 35.5895H191.293C192.427 35.5895 192.427 35.5895 192.427 36.7226Z" fill="#234692"/>
</svg>
