<svg width="13" height="13" viewBox="0 0 13 13" fill="none" xmlns="http://www.w3.org/2000/svg">
<path d="M9.20832 11.375V10.2917C9.20832 9.09505 8.23827 8.125 7.04166 8.125H2.70832C1.51171 8.125 0.541656 9.09505 0.541656 10.2917V11.375" stroke="#575D66" stroke-linecap="round" stroke-linejoin="round"/>
<path fill-rule="evenodd" clip-rule="evenodd" d="M4.87501 5.95833C6.07163 5.95833 7.04168 4.98828 7.04168 3.79167C7.04168 2.59505 6.07163 1.625 4.87501 1.625C3.67839 1.625 2.70834 2.59505 2.70834 3.79167C2.70834 4.98828 3.67839 5.95833 4.87501 5.95833Z" stroke="#575D66" stroke-linecap="round" stroke-linejoin="round"/>
<path d="M12.4583 11.375V10.2917C12.4576 9.30429 11.7894 8.44228 10.8333 8.19543" stroke="#575D66" stroke-linecap="round" stroke-linejoin="round"/>
<path d="M8.66666 1.69543C9.62536 1.9409 10.2959 2.80476 10.2959 3.79439C10.2959 4.78402 9.62536 5.64788 8.66666 5.89335" stroke="#575D66" stroke-linecap="round" stroke-linejoin="round"/>
</svg>
